<?xml version="1.0" standalone="no"?>
<!DOCTYPE svg PUBLIC "-//W3C//DTD SVG 20010904//EN"
 "http://www.w3.org/TR/2001/REC-SVG-20010904/DTD/svg10.dtd">
<svg version="1.0" xmlns="http://www.w3.org/2000/svg"
 width="260.000000pt" height="260.000000pt" viewBox="0 0 260.000000 260.000000"
 preserveAspectRatio="xMidYMid meet">
<metadata>
Created by potrace 1.14, written by Peter Selinger 2001-2017
</metadata>
<g transform="translate(0.000000,260.000000) scale(0.100000,-0.100000)"
fill="#000000" stroke="none">
<path d="M1070 2375 c-7 -8 -27 -15 -44 -15 -17 0 -44 -9 -61 -20 -16 -11 -37
-20 -46 -20 -23 0 -65 -49 -88 -101 -10 -26 -24 -50 -29 -53 -6 -3 -16 -23
-23 -44 -6 -20 -20 -49 -31 -64 -12 -18 -17 -35 -12 -52 3 -13 0 -35 -7 -48
-7 -12 -14 -50 -15 -83 -1 -33 -15 -109 -32 -170 -36 -136 -60 -311 -43 -328
7 -7 11 -8 11 0 0 39 34 193 61 273 62 188 112 255 211 285 66 19 76 19 173
-6 177 -45 267 -60 410 -69 203 -12 263 -31 343 -108 72 -70 83 -100 86 -252
4 -128 28 -380 37 -380 4 0 12 7 19 15 7 8 16 13 20 10 8 -5 27 71 65 260 34
166 32 260 -8 328 -21 36 -27 59 -27 105 0 55 -4 65 -43 118 -31 43 -70 77
-140 124 -202 135 -258 168 -294 175 -20 4 -49 15 -63 24 -32 23 -86 41 -120
41 -15 0 -49 9 -75 21 -33 15 -57 19 -82 14 -25 -4 -43 -1 -69 14 -42 25 -67
27 -84 6z"/>
<path d="M822 1607 c-25 -14 -57 -56 -49 -63 3 -3 14 -1 25 5 35 19 78 12 153
-24 41 -19 89 -35 107 -35 29 0 33 3 30 22 -2 17 -23 31 -91 61 -102 44 -143
53 -175 34z"/>
<path d="M825 1391 c-45 -20 -95 -73 -95 -99 1 -13 6 -10 21 11 21 27 96 77
117 77 6 0 -3 -13 -19 -29 -23 -24 -29 -38 -29 -75 0 -61 30 -95 89 -103 31
-4 42 -3 37 5 -3 6 3 16 15 23 19 10 21 9 16 -4 -10 -28 22 -7 38 24 20 37 19
83 -2 117 l-17 27 34 -30 c35 -31 32 -17 -4 23 -46 52 -130 66 -201 33z m88
-53 c6 -18 -3 -38 -17 -38 -18 0 -35 21 -29 36 6 17 40 18 46 2z"/>
<path d="M1360 1370 c-15 -10 -3 -35 25 -50 13 -7 22 -16 20 -20 -6 -9 144
-24 214 -22 30 2 69 -3 88 -9 44 -14 52 -5 23 26 -30 32 -77 45 -160 45 -36 0
-95 8 -132 18 -37 11 -72 16 -78 12z"/>
<path d="M570 1340 c6 -11 13 -20 16 -20 2 0 0 9 -6 20 -6 11 -13 20 -16 20
-2 0 0 -9 6 -20z"/>
<path d="M1061 1284 c0 -11 3 -14 6 -6 3 7 2 16 -1 19 -3 4 -6 -2 -5 -13z"/>
<path d="M1480 1150 c36 -5 81 -12 100 -15 29 -4 32 -3 17 6 -11 6 -56 13
-100 15 l-82 3 65 -9z"/>
<path d="M2047 1071 c-29 -19 -56 -50 -57 -65 0 -5 10 2 23 15 12 13 33 31 47
40 14 9 23 19 20 22 -3 4 -18 -2 -33 -12z"/>
<path d="M1060 925 c0 -55 116 -98 153 -57 23 25 21 35 -2 22 -35 -18 -87 -12
-120 16 -17 14 -31 23 -31 19z"/>
<path d="M1931 918 c-1 -10 -16 -35 -35 -55 -18 -21 -61 -79 -94 -129 -84
-125 -222 -242 -389 -327 -90 -46 -92 -47 -142 -36 -28 6 -61 19 -73 29 -21
17 -22 21 -11 61 6 24 10 45 9 46 -5 6 -132 20 -142 16 -5 -2 -16 -19 -22 -37
-18 -50 -62 -66 -133 -46 -54 15 -173 169 -257 330 -36 70 -34 47 3 -37 26
-58 83 -144 144 -218 22 -27 41 -56 41 -65 0 -24 99 -149 139 -175 54 -36 123
-48 189 -34 65 13 154 58 197 100 17 16 35 29 39 29 19 0 173 83 232 125 35
25 107 95 161 155 53 61 103 110 111 110 7 0 11 4 8 9 -3 5 3 39 15 76 11 36
18 72 15 78 -2 7 -5 4 -5 -5z"/>
<path d="M910 785 c0 -38 117 -155 154 -155 13 0 26 -3 29 -6 8 -9 65 -15 137
-16 73 -1 161 33 208 81 51 53 65 71 57 79 -3 3 -10 0 -15 -8 -8 -12 -40 -15
-182 -15 -144 1 -188 5 -261 23 -88 22 -127 27 -127 17z m167 -51 c-3 -3 -12
-4 -19 -1 -8 3 -5 6 6 6 11 1 17 -2 13 -5z m46 -11 c-7 -2 -19 -2 -25 0 -7 3
-2 5 12 5 14 0 19 -2 13 -5z m70 -10 c-7 -2 -19 -2 -25 0 -7 3 -2 5 12 5 14 0
19 -2 13 -5z"/>
</g>
</svg>
